<svg xmlns="http://www.w3.org/2000/svg" version="1.1" xmlns:xlink="http://www.w3.org/1999/xlink" width="512" height="512" x="0" y="0" viewBox="0 0 297 297" style="enable-background:new 0 0 512 512" xml:space="preserve"><g><path d="M263.999 8.144c-18.223 0-32.998 14.786-32.998 33.024 0 18.242 14.775 33.026 32.998 33.026C282.225 74.194 297 59.41 297 41.168c0-18.238-14.775-33.024-33.001-33.024z" fill="#000000" opacity="1" data-original="#000000"></path><ellipse cx="33" cy="255.832" rx="33" ry="33.025" fill="#000000" opacity="1" data-original="#000000"></ellipse><path d="m178.701 95.883 48.232-24.133a47.982 47.982 0 0 1-9.635-19.244l-48.232 24.133a47.969 47.969 0 0 1 9.635 19.244zM159.23 251.188a47.829 47.829 0 0 1-8.618-20.379l-71.381 11.905a47.972 47.972 0 0 1 1.832 13.116c0 2.91-.274 5.755-.771 8.523l78.938-13.165zM185.499 176.379l-21.94-32.938a47.961 47.961 0 0 1-19.059 10.205l21.94 32.936a47.988 47.988 0 0 1 19.059-10.203zM197.998 189.783c-18.225 0-33 14.782-33 33.023 0 18.236 14.775 33.023 33 33.023 18.226 0 33.003-14.787 33.003-33.023 0-18.241-14.777-33.023-33.003-33.023z" fill="#000000" opacity="1" data-original="#000000"></path><ellipse cx="131.999" cy="107.219" rx="32.999" ry="33.024" fill="#000000" opacity="1" data-original="#000000"></ellipse></g></svg>